<svg width="42" height="67" viewBox="0 0 42 67" fill="none" xmlns="http://www.w3.org/2000/svg">
<path d="M12.9444 49.5151C13.4973 49.0861 14.1771 48.8715 14.9838 48.8715C16.1279 48.8715 17.0067 49.3227 17.6205 50.2249C18.2342 51.1271 18.5415 52.4421 18.5424 54.1698V60.3711C18.5425 60.456 18.5262 60.5402 18.4943 60.6188C18.4624 60.6973 18.4156 60.7687 18.3564 60.8289C18.2973 60.889 18.2271 60.9367 18.1498 60.9693C18.0726 61.0019 17.9897 61.0186 17.906 61.0186H6.13904C5.96993 61.0186 5.80774 60.9504 5.68816 60.829C5.56858 60.7075 5.5014 60.5428 5.5014 60.3711V54.5445C5.5014 52.9307 5.80566 51.6913 6.41418 50.8261C6.68609 50.4155 7.0558 50.0813 7.48895 49.8547C7.9221 49.628 8.40463 49.5162 8.89171 49.5297C9.48478 49.5178 10.069 49.6767 10.5768 49.9882C11.0845 50.2997 11.4949 50.7509 11.7604 51.2896C11.9623 50.5867 12.3765 49.9661 12.9444 49.5151ZM7.77422 57.9729H10.849V54.9272C10.849 54.1706 10.7186 53.5968 10.4578 53.2057C10.332 53.0145 10.1593 52.8598 9.95667 52.7569C9.75409 52.6541 9.52862 52.6066 9.30246 52.6191C8.79305 52.6191 8.41099 52.8146 8.15628 53.2057C7.90157 53.5968 7.77422 54.1706 7.77422 54.9272V57.9729ZM15.8784 52.5714C15.6176 52.1609 15.2142 51.9557 14.6683 51.9557C13.5834 51.9557 13.0409 52.7696 13.0409 54.3975V57.9729H16.2643V54.3975C16.2678 53.5897 16.1392 52.981 15.8784 52.5714Z" fill="black"/>
<path d="M4.71906 46.1071V44.4492C4.71974 44.2779 4.78723 44.1138 4.90674 43.993C5.02624 43.8721 5.18803 43.8043 5.35669 43.8043H17.9061C17.9897 43.8043 18.0726 43.821 18.1499 43.8536C18.2272 43.8861 18.2974 43.9339 18.3565 43.994C18.4156 44.0541 18.4624 44.1255 18.4943 44.2041C18.5262 44.2827 18.5426 44.3668 18.5424 44.4518V46.1071C18.5424 46.2785 18.4754 46.4428 18.356 46.564C18.2367 46.6852 18.0748 46.7533 17.9061 46.7533H5.35669C5.18781 46.7533 5.02582 46.6853 4.90628 46.5641C4.78673 46.443 4.7194 46.2786 4.71906 46.1071Z" fill="black"/>
<path d="M6.65154 40.9066C6.50729 41.071 6.32994 41.2019 6.13151 41.2906C5.93308 41.3792 5.7182 41.4235 5.50144 41.4204C5.28401 41.4246 5.06825 41.3811 4.86887 41.2929C4.6695 41.2047 4.4912 41.0738 4.34613 40.9093C4.02733 40.5461 3.86036 40.0712 3.88061 39.5851C3.86003 39.1022 4.01977 38.6292 4.32787 38.2609C4.46539 38.0971 4.63693 37.9663 4.83016 37.878C5.02338 37.7896 5.23349 37.7458 5.44537 37.7497C5.67047 37.7425 5.8945 37.7841 6.1025 37.8718C6.3105 37.9594 6.49768 38.0912 6.65154 38.2582C6.97522 38.619 7.14577 39.0948 7.12618 39.5824C7.14395 40.0698 6.97364 40.5449 6.65154 40.9066ZM8.51491 40.4114V38.7535C8.51525 38.6684 8.53213 38.5842 8.56459 38.5058C8.59705 38.4273 8.64444 38.3561 8.70405 38.2964C8.76366 38.2366 8.83431 38.1893 8.91194 38.1573C8.98958 38.1253 9.07267 38.1092 9.15646 38.1099H17.9061C18.0748 38.1099 18.2367 38.178 18.356 38.2992C18.4754 38.4204 18.5424 38.5847 18.5424 38.7561V40.4114C18.5426 40.4964 18.5262 40.5805 18.4943 40.6591C18.4624 40.7376 18.4156 40.809 18.3565 40.8692C18.2974 40.9293 18.2272 40.9771 18.1499 41.0096C18.0726 41.0422 17.9897 41.0589 17.9061 41.0589H9.15646C9.07278 41.0589 8.98993 41.0422 8.91264 41.0096C8.83535 40.9771 8.76515 40.9293 8.70604 40.8692C8.64693 40.809 8.60009 40.7376 8.56819 40.6591C8.53628 40.5805 8.51995 40.4964 8.52012 40.4114H8.51491Z" fill="black"/>
<path d="M9.0126 26.7642C9.43582 25.9954 10.0635 25.3631 10.8238 24.9394C11.6556 24.4837 12.5899 24.2555 13.5348 24.2773C14.4797 24.2553 15.4139 24.4835 16.2457 24.9394C17.0046 25.3637 17.6308 25.996 18.053 26.7642C18.4847 27.554 18.7063 28.4444 18.6958 29.3477C18.6958 30.6463 18.2921 31.6678 17.4845 32.412H21.5268C21.6959 32.412 21.8581 32.4802 21.9776 32.6016C22.0972 32.7231 22.1644 32.8878 22.1644 33.0595V34.7161C22.1644 34.8878 22.0972 35.0526 21.9776 35.174C21.8581 35.2954 21.6959 35.3636 21.5268 35.3636H9.15604C9.07236 35.3636 8.98951 35.3469 8.91222 35.3143C8.83493 35.2818 8.76473 35.2341 8.70562 35.1739C8.64651 35.1138 8.59967 35.0424 8.56777 34.9638C8.53586 34.8853 8.51953 34.8011 8.5197 34.7161V33.1919C8.52039 33.021 8.58774 32.8573 8.707 32.7367C8.82626 32.6161 8.98772 32.5484 9.15604 32.5484H9.67762C8.80831 31.8174 8.37366 30.7518 8.37366 29.3517C8.36135 28.4474 8.58158 27.5555 9.0126 26.7642ZM15.552 27.9944C15.0487 27.5097 14.3749 27.2669 13.5308 27.266C12.6867 27.2652 12.013 27.5079 11.5097 27.9944C11.0259 28.4903 10.7546 29.1601 10.7546 29.8582C10.7546 30.5563 11.0259 31.2261 11.5097 31.722C12.013 32.2067 12.6867 32.4495 13.5308 32.4504C14.3749 32.4512 15.0487 32.2085 15.552 31.722C16.0357 31.2261 16.3071 30.5563 16.3071 29.8582C16.3071 29.1601 16.0357 28.4903 15.552 27.9944Z" fill="black"/>
<path d="M8.52016 13.4682C8.51987 13.3612 8.54578 13.2557 8.59555 13.1613C8.64532 13.0669 8.71741 12.9866 8.80532 12.9275C8.89324 12.8684 8.99424 12.8325 9.09923 12.8228C9.20423 12.8132 9.30994 12.8302 9.40686 12.8723L19.1579 17.086C20.3132 17.553 21.1269 18.1304 21.5989 18.8181C22.071 19.5058 22.3066 20.3352 22.3057 21.3063C22.3053 21.8406 22.224 22.3716 22.0645 22.8808C21.9856 23.1383 21.8816 23.3871 21.7541 23.6236C21.674 23.772 21.54 23.8827 21.3807 23.9321C21.2214 23.9816 21.0494 23.966 20.9013 23.8885L19.9599 23.3972C19.81 23.3194 19.6967 23.1843 19.6448 23.0216C19.593 22.859 19.6069 22.6821 19.6834 22.5298C19.7225 22.4491 19.759 22.367 19.7916 22.2809C19.8998 22.0006 19.9563 21.7026 19.9585 21.4016C19.974 21.0501 19.8725 20.7035 19.6704 20.4177C19.4091 20.1156 19.0799 19.8821 18.7107 19.7371L18.6168 19.6987L9.40816 23.7177C9.31128 23.76 9.20555 23.7773 9.10048 23.7678C8.99541 23.7584 8.89429 23.7226 8.80623 23.6636C8.71817 23.6047 8.64592 23.5244 8.59598 23.4301C8.54605 23.3357 8.51999 23.2302 8.52016 23.1231V21.493C8.52008 21.3652 8.55716 21.2402 8.62675 21.1337C8.69634 21.0272 8.79535 20.944 8.91135 20.8944L15.319 18.2036L8.91005 15.4929C8.79405 15.4438 8.69499 15.3608 8.62537 15.2545C8.55575 15.1482 8.51869 15.0234 8.51886 14.8957L8.52016 13.4682Z" fill="black"/>
<path d="M0.0207851 9.94655C0.0762336 10.4673 0.244332 10.9692 0.513053 11.4162C0.781774 11.8633 1.14447 12.2445 1.5752 12.5326C2.00593 12.8208 2.49405 13.0086 3.00461 13.0828C3.51518 13.157 4.03559 13.1157 4.52859 12.9618C4.74451 12.8913 4.97764 12.8976 5.18956 12.9797C5.40148 13.0617 5.57952 13.2147 5.69434 13.4134L6.22375 14.3403C6.48454 14.8078 7.00613 14.6674 7.00613 14.2701V9.65258C7.00613 7.72451 5.45571 6.02951 3.55714 6.00038C3.06036 5.99288 2.56768 6.09273 2.11179 6.29329C1.65589 6.49385 1.24719 6.79054 0.912786 7.1637C0.578382 7.53686 0.325917 7.97795 0.172132 8.45772C0.0183479 8.9375 -0.0332415 9.44499 0.0207851 9.94655Z" fill="url(#paint0_linear)"/>
<path d="M30.29 64.66L30.29 60.422L29.406 60.422L29.406 65.726L37.102 65.726L37.102 64.829C37.102 62.619 37.024 61.215 36.712 59.525L35.828 59.655C36.127 61.228 36.205 62.593 36.205 64.66L30.29 64.66ZM28.301 57.77L32.526 57.77L32.526 61.111L33.41 61.111L33.41 57.77L39.988 57.77L39.988 56.704L28.301 56.704L28.301 57.77ZM31.304 53.091C30.303 53.091 29.575 52.259 29.575 51.128C29.575 49.984 30.303 49.152 31.304 49.152C32.331 49.152 33.046 49.984 33.046 51.128C33.046 52.259 32.331 53.091 31.304 53.091ZM31.304 48.112C29.783 48.112 28.717 49.373 28.717 51.128C28.717 52.87 29.783 54.131 31.304 54.131C32.851 54.131 33.917 52.87 33.917 51.128C33.917 49.373 32.851 48.112 31.304 48.112ZM37.648 51.635L37.648 45.304L34.788 45.304L34.788 52.714L35.633 52.714L35.633 46.357L36.855 46.357L36.855 52.675L39.806 52.675L39.806 44.875L38.948 44.875L38.948 51.635L37.648 51.635ZM30.81 45.304L28.301 45.304L28.301 46.37L34.242 46.37L34.242 45.304L31.694 45.304L31.694 43.575L30.81 43.575L30.81 45.304ZM36.387 39.286C36.387 40.417 35.165 41.21 33.267 41.21C31.382 41.21 30.16 40.417 30.16 39.286C30.16 38.168 31.382 37.375 33.267 37.375C35.165 37.375 36.387 38.168 36.387 39.286ZM29.198 39.286C29.198 41.002 30.784 42.224 33.267 42.224C35.75 42.224 37.336 41.002 37.336 39.286C37.336 37.57 35.75 36.361 33.267 36.361C30.784 36.361 29.198 37.57 29.198 39.286ZM32.955 31.499L32.955 33.423L28.314 33.423L28.314 34.489L39.962 34.489L39.962 33.423L33.852 33.423L33.852 31.499L32.955 31.499ZM32.084 28.133L32.084 22.179L34.229 22.179L34.229 28.133L32.084 28.133ZM37.596 24.623L35.087 24.623L35.087 21.139L29.133 21.139L29.133 22.179L31.213 22.179L31.213 28.133L29.133 28.133L29.133 29.186L35.087 29.186L35.087 25.702L37.596 25.702L37.596 30.434L38.467 30.434L38.467 19.865L37.596 19.865L37.596 24.623ZM29.562 17.7861L30.42 17.7861L30.42 13.4051C33.189 13.6261 35.425 15.1861 36.92 18.3191L37.791 17.7471C35.893 13.8731 32.929 12.3261 29.562 12.3261L29.562 17.7861ZM28.301 9.97306L39.962 9.97306L39.962 8.90706L28.301 8.90706L28.301 9.97306Z" fill="#40BCA1"/>
<path d="M33.9231 1.53099L33.9578 1.49757L33.9925 1.53099L36.8847 4.31735C37.1284 4.55216 37.5244 4.55216 37.7681 4.31735C38.0108 4.08354 38.0108 3.70525 37.7681 3.47145L34.3995 0.226132C34.1558 -0.00868003 33.7599 -0.00868005 33.5161 0.226132L30.1476 3.47145C29.9049 3.70525 29.9049 4.08354 30.1476 4.31735C30.3913 4.55216 30.7872 4.55216 31.031 4.31735L33.9231 1.53099Z" fill="#40BCA1" stroke="white" stroke-width="0.1"/>
<defs>
<linearGradient id="paint0_linear" x1="7.64116" y1="13.7881" x2="0.910974" y2="7.16217" gradientUnits="userSpaceOnUse">
<stop stop-color="#40BCA1"/>
<stop offset="1" stop-color="#92DA7F"/>
</linearGradient>
</defs>
</svg>
