<svg width="33" height="33" viewBox="0 0 33 33" fill="none" xmlns="http://www.w3.org/2000/svg">
<path d="M28.6184 5.3288C28.3911 6.69403 28.2781 8.07584 28.2808 9.45985C28.2808 10.1484 28.2808 10.8851 28.3704 11.5805C29.6036 11.5116 30.885 11.4772 32.2008 11.4703C31.4683 9.1869 30.2457 7.09091 28.6184 5.3288Z" fill="white"/>
<path d="M27.6122 4.3236C25.7555 2.62431 23.534 1.37275 21.118 0.664993C18.702 -0.0427605 16.1559 -0.18789 13.6751 0.240745C17.9465 2.51282 21.3636 6.71961 23.4924 12.0142C24.6842 11.8559 25.9105 11.7251 27.192 11.6356C27.13 10.9471 27.0955 10.1759 27.0955 9.43234C27.0929 7.71627 27.2661 6.00445 27.6122 4.3236Z" fill="white"/>
<path d="M22.7347 13.3087C20.9573 13.5749 19.2832 13.91 17.7124 14.3139C19.0022 17.2845 19.6039 20.508 19.4727 23.7436C19.3415 26.9792 18.4807 30.1434 16.9546 33C18.3538 32.9603 19.7426 32.7451 21.0882 32.3597C22.0129 32.0908 22.9121 31.7406 23.775 31.3132L24.0368 31.1823L24.1746 30.4938C24.5093 28.7011 24.7005 26.8846 24.7464 25.0615C24.766 21.0567 24.0852 17.0793 22.7347 13.3087Z" fill="white"/>
<path d="M32.5317 12.627C31.1539 12.627 29.8104 12.6591 28.5015 12.7234C29.0182 16.5309 30.4098 19.7668 32.2699 21.3573C32.7494 19.7955 32.9955 18.1714 33.0002 16.5377C33.0025 15.22 32.8452 13.9069 32.5317 12.627Z" fill="white"/>
<path d="M4.14738 5.89343H3.85802C1.95446 8.15188 0.691242 10.8789 0.199793 13.7906C0.1309 14.1969 0.0826735 14.61 0.0482269 15.0231V15.2296C0.0482269 15.6427 1.8824e-06 16.0558 1.8824e-06 16.4689C-0.000792836 18.1334 0.250055 19.7884 0.74405 21.378C5.2239 17.7009 10.4421 15.0289 16.0452 13.5428C13.4893 8.94353 9.11458 5.89343 4.14738 5.89343Z" fill="white"/>
<path d="M11.836 0.667603H11.7809C11.3882 0.784649 10.9955 0.915466 10.6097 1.06005L10.4443 1.1289C10.0585 1.28038 9.67963 1.43873 9.3145 1.61775C8.96314 1.78987 8.62556 1.97577 8.28798 2.16855L8.08131 2.2856C7.75751 2.47838 7.4406 2.68493 7.13058 2.89837L6.94457 3.02919C6.26366 3.51642 5.62108 4.05503 5.02245 4.6403L4.96044 4.69538L4.89844 4.75734C10.0792 5.06029 14.5848 8.38579 17.1683 13.2535C18.7735 12.8473 20.4752 12.4893 22.2871 12.207C20.0549 6.74714 16.3898 2.57477 11.836 0.667603Z" fill="white"/>
<path d="M27.3159 12.806C26.1447 12.8887 25.0148 13.0057 23.9194 13.1503C25.2621 16.9749 25.9379 21.0015 25.9173 25.0546C25.8792 26.8495 25.6972 28.6385 25.3731 30.4043C28.3034 28.5269 30.5688 25.7763 31.849 22.5415C29.5618 20.8272 27.8877 17.1781 27.3159 12.806Z" fill="white"/>
<path d="M16.562 14.6168C10.8856 16.09 5.61211 18.8169 1.12988 22.5966C2.29729 25.5281 4.28004 28.0642 6.84379 29.9053C9.40753 31.7464 12.4451 32.8155 15.5975 32.9862C17.4956 29.8823 18.4528 26.295 18.3532 22.6586C18.3429 19.8803 17.7319 17.1371 16.562 14.6168ZM6.22798 26.3972C6.16795 26.4459 6.09887 26.4822 6.02472 26.5041C5.95057 26.5259 5.87282 26.5329 5.79597 26.5246C5.71911 26.5162 5.64466 26.4928 5.57692 26.4556C5.50917 26.4184 5.44948 26.3681 5.40127 26.3077L4.96724 25.7913C4.43807 25.1941 3.97602 24.5407 3.58937 23.8428C3.53525 23.7054 3.53448 23.5527 3.5872 23.4148C3.63992 23.2768 3.74234 23.1635 3.87434 23.0971C4.00635 23.0307 4.15842 23.016 4.30072 23.0559C4.44301 23.0958 4.56524 23.1874 4.64344 23.3127C5.00016 23.9303 5.42288 24.5075 5.90418 25.034L6.3451 25.571C6.39231 25.6327 6.42677 25.7032 6.44646 25.7783C6.46615 25.8534 6.47067 25.9317 6.45977 26.0086C6.44887 26.0855 6.42276 26.1595 6.38297 26.2262C6.34317 26.2929 6.29049 26.3511 6.22798 26.3972ZM12.9037 30.2597C12.8805 30.3337 12.8425 30.4021 12.7921 30.4609C12.7416 30.5197 12.6796 30.5676 12.61 30.6017C12.5405 30.6359 12.4646 30.6555 12.3872 30.6594C12.3098 30.6634 12.2324 30.6515 12.1597 30.6247C10.8556 30.1743 9.61456 29.5589 8.46701 28.7932C8.40187 28.748 8.34628 28.6904 8.30341 28.6238C8.26054 28.5571 8.23123 28.4826 8.21716 28.4046C8.20308 28.3266 8.20452 28.2466 8.22138 28.1692C8.23825 28.0917 8.27021 28.0183 8.31545 27.9532C8.36068 27.8881 8.41831 27.8326 8.48503 27.7897C8.55175 27.7469 8.62626 27.7176 8.70431 27.7035C8.78235 27.6895 8.86241 27.6909 8.9399 27.7078C9.0174 27.7246 9.09081 27.7566 9.15595 27.8018C10.2278 28.5133 11.3852 29.087 12.6006 29.5093C12.7381 29.5713 12.8464 29.6839 12.9029 29.8237C12.9594 29.9635 12.9597 30.1197 12.9037 30.2597Z" fill="white"/>
</svg>
