<svg width="33" height="36" viewBox="0 0 33 36" fill="none" xmlns="http://www.w3.org/2000/svg">
<path d="M7.16774 6.75563H18.6557L21.1328 4.6764C21.5378 4.33674 21.8322 3.87427 21.9755 3.35258C22.1189 2.83088 22.1042 2.27557 21.9334 1.76298C21.7626 1.25039 21.4442 0.805677 21.0218 0.489987C20.5994 0.174297 20.0939 0.00312589 19.5747 0H6.2487C5.7289 0.00158522 5.22235 0.171647 4.79885 0.48676C4.37536 0.801873 4.05575 1.24653 3.88407 1.75946C3.71238 2.2724 3.69707 2.82837 3.84024 3.35078C3.98341 3.87319 4.27802 4.33634 4.68347 4.6764L7.16774 6.75563Z" fill="white"/>
<path d="M24.3904 18.2702L23.4426 19.2611C23.1437 19.5749 22.7885 19.824 22.3973 19.9939C22.0061 20.1639 21.5866 20.2514 21.163 20.2514C20.7393 20.2514 20.3199 20.1639 19.9287 19.9939C19.5374 19.824 19.1822 19.5749 18.8833 19.2611C18.5831 18.9486 18.3449 18.5772 18.1823 18.1682C18.0197 17.7592 17.936 17.3207 17.936 16.8778C17.936 16.4349 18.0197 15.9964 18.1823 15.5874C18.3449 15.1784 18.5831 14.807 18.8833 14.4946L21.2527 12.0175C20.5529 10.9342 19.7494 9.92814 18.8546 9.01501H6.97175C3.04431 13.0234 0 20.0867 0 25.8741C0 30.9183 2.55607 36 8.24979 36H17.9356C22.7964 36 25.8335 32.1193 25.8335 25.8741C25.779 23.271 25.2906 20.6978 24.3904 18.2702ZM12.3711 21.3778H13.4624C14.2203 21.3828 14.9492 21.6832 15.5064 22.2202C16.0637 22.7572 16.4094 23.4922 16.4758 24.2814C16.5422 25.0707 16.3247 25.8575 15.8656 26.488C15.4066 27.1185 14.7392 27.5473 13.9938 27.6906V28.8766C13.9938 29.1752 13.8803 29.4616 13.6783 29.6727C13.4763 29.8839 13.2024 30.0025 12.9168 30.0025C12.6311 30.0025 12.3572 29.8839 12.1552 29.6727C11.9532 29.4616 11.8398 29.1752 11.8398 28.8766V27.7506H10.4038C10.1181 27.7506 9.8442 27.632 9.64223 27.4209C9.44025 27.2097 9.32678 26.9233 9.32678 26.6247C9.32678 26.3261 9.44025 26.0397 9.64223 25.8285C9.8442 25.6174 10.1181 25.4988 10.4038 25.4988H13.4624C13.6857 25.4778 13.8934 25.3703 14.0446 25.1974C14.1959 25.0244 14.2797 24.7986 14.2797 24.5642C14.2797 24.3299 14.1959 24.104 14.0446 23.9311C13.8934 23.7582 13.6857 23.6506 13.4624 23.6297H12.3711C11.6062 23.6353 10.8672 23.3397 10.3013 22.8016C9.73541 22.2635 9.38402 21.5224 9.31705 20.7258C9.25007 19.9291 9.47244 19.1353 9.93989 18.5023C10.4073 17.8692 11.0856 17.4434 11.8398 17.3094V16.1309C11.8398 15.8323 11.9532 15.5459 12.1552 15.3348C12.3572 15.1236 12.6311 15.005 12.9168 15.005C13.2024 15.005 13.4763 15.1236 13.6783 15.3348C13.8803 15.5459 13.9938 15.8323 13.9938 16.1309V17.2494H15.4298C15.7154 17.2494 15.9893 17.368 16.1913 17.5792C16.3933 17.7903 16.5068 18.0767 16.5068 18.3753C16.5068 18.6739 16.3933 18.9603 16.1913 19.1715C15.9893 19.3826 15.7154 19.5013 15.4298 19.5013H12.3711C12.1331 19.5013 11.9048 19.6001 11.7365 19.7761C11.5682 19.952 11.4736 20.1907 11.4736 20.4395C11.4736 20.6884 11.5682 20.927 11.7365 21.103C11.9048 21.279 12.1331 21.3778 12.3711 21.3778Z" fill="white"/>
<path d="M31.9231 9H28.3331C28.1202 9.0002 27.9122 9.06634 27.7352 9.19007C27.5583 9.3138 27.4204 9.48958 27.339 9.6952C27.2575 9.90081 27.2362 10.127 27.2777 10.3453C27.3192 10.5636 27.4216 10.7641 27.572 10.9216L28.4982 11.8974L27.1053 13.241L25.2816 12.1526C25.0762 12.029 24.8375 11.9796 24.6026 12.0122C24.3676 12.0447 24.1495 12.1574 23.982 12.3328L20.392 16.0859C20.2406 16.2423 20.1372 16.4425 20.0951 16.6607C20.0531 16.879 20.0742 17.1053 20.156 17.3109C20.2377 17.5165 20.3763 17.6919 20.5539 17.8146C20.7316 17.9374 20.9402 18.0019 21.1531 18C21.4373 18.0001 21.7104 17.8843 21.9142 17.6772L24.9154 14.5321L26.7248 15.583C26.9231 15.7026 27.1528 15.7526 27.3803 15.7255C27.6077 15.6985 27.8209 15.5959 27.9885 15.4329L30.0276 13.4662L31.162 14.6522C31.3651 14.8614 31.638 14.9798 31.9231 14.9825C32.0663 14.9823 32.208 14.9517 32.3395 14.8924C32.5354 14.8076 32.7028 14.6639 32.8204 14.4794C32.938 14.295 33.0006 14.0782 33.0001 13.8565V10.1034C32.9944 9.80872 32.8785 9.52809 32.6771 9.32178C32.4758 9.11547 32.205 8.99994 31.9231 9Z" fill="white"/>
</svg>
