<svg width="33" height="33" viewBox="0 0 33 33" fill="none" xmlns="http://www.w3.org/2000/svg">
<path d="M30.8035 8.29137C28.995 5.137 26.1955 2.66857 22.8401 1.26973C19.4847 -0.129108 15.7613 -0.379993 12.2487 0.55607C8.73603 1.49213 5.63089 3.56271 3.41586 6.44598C1.20083 9.32924 0 12.8637 0 16.5C0 20.1363 1.20083 23.6708 3.41586 26.554C5.63089 29.4373 8.73603 31.5079 12.2487 32.4439C15.7613 33.38 19.4847 33.1291 22.8401 31.7303C26.1955 30.3314 28.995 27.863 30.8035 24.7086C32.2427 22.2012 33 19.3603 33 16.469C33 13.5776 32.2427 10.7368 30.8035 8.22932V8.29137ZM19.3199 26.7909C19.3255 26.8766 19.314 26.9626 19.2861 27.0438C19.2582 27.125 19.2144 27.1999 19.1573 27.2641C19.1002 27.3282 19.031 27.3804 18.9536 27.4175C18.8762 27.4547 18.7921 27.4761 18.7064 27.4805H14.5706C14.3884 27.4834 14.2124 27.4139 14.0812 27.2874C13.9547 27.1562 13.8853 26.9801 13.8882 26.7978V22.6608C13.8872 22.4903 13.9493 22.3255 14.0626 22.1982C14.1759 22.0709 14.3323 21.99 14.5017 21.9713H18.6375C18.8204 21.969 18.9975 22.0354 19.1338 22.1574C19.196 22.2238 19.2445 22.3018 19.2764 22.387C19.3084 22.4723 19.3231 22.5629 19.3199 22.6539V26.7909ZM24.5309 14.1591C24.3806 14.6125 24.1794 15.0473 23.9312 15.4554C23.6619 15.8476 23.3368 16.1983 22.9662 16.4966C22.6513 16.7644 22.3222 17.0153 21.9805 17.2481C21.7324 17.3929 21.3878 17.5998 20.9328 17.8549C20.4707 18.1153 20.0727 18.4757 19.7679 18.9098C19.514 19.2113 19.3535 19.5803 19.3061 19.9717C19.3108 20.153 19.244 20.3289 19.12 20.4612C19.0542 20.5247 18.9764 20.5745 18.8912 20.6076C18.806 20.6408 18.7151 20.6567 18.6237 20.6543H14.4879C14.3175 20.6553 14.1528 20.5932 14.0255 20.4799C13.8982 20.3665 13.8174 20.2101 13.7986 20.0406V19.2132C13.8126 18.2013 14.2062 17.2317 14.9015 16.4966C15.6106 15.7062 16.4801 15.0762 17.4519 14.6487C18 14.4376 18.4961 14.1107 18.9063 13.6902C19.2182 13.3323 19.381 12.8684 19.3612 12.394C19.3447 12.1308 19.2606 11.8763 19.1168 11.6552C18.9731 11.4342 18.7748 11.254 18.541 11.1322C17.9977 10.7752 17.3635 10.5815 16.7135 10.5742C16.0635 10.5668 15.4251 10.7461 14.8739 11.0908C14.1832 11.6642 13.5673 12.3221 13.0404 13.049C12.9806 13.1349 12.8998 13.2041 12.8057 13.25C12.7116 13.2958 12.6073 13.3169 12.5028 13.311C12.4307 13.3176 12.3581 13.3094 12.2893 13.2868C12.2206 13.2643 12.1572 13.2279 12.103 13.18L9.24929 11.0494C9.11497 10.9664 9.0178 10.8348 8.97801 10.682C8.93821 10.5292 8.95884 10.3669 9.03561 10.2289V10.1737C9.80779 8.75683 10.9572 7.58157 12.3564 6.77829C13.7556 5.97501 15.3499 5.57512 16.9625 5.62297C18.2413 5.63711 19.4995 5.9477 20.6381 6.53034C21.7767 7.11299 22.7647 7.9518 23.5246 8.98088C24.3254 9.95636 24.7854 11.1671 24.8342 12.4284C24.8405 13.0157 24.7521 13.6001 24.5723 14.1591H24.5309Z" fill="white"/>
</svg>
